<svg xmlns="http://www.w3.org/2000/svg"  viewBox="0 0 100 100" width="100px" height="100px"><circle cx="69" cy="28" r="9" fill="#4b4dff"/><circle cx="45" cy="26" r="7" fill="#4b4dff"/><circle cx="24" cy="26" r="5" fill="#4b4dff"/><path fill="#4343bf" d="M69,40c-6.617,0-12-5.383-12-12s5.383-12,12-12s12,5.383,12,12S75.617,40,69,40z M69,22 c-3.309,0-6,2.691-6,6s2.691,6,6,6s6-2.691,6-6S72.309,22,69,22z"/><path fill="#4343bf" d="M45,36c-5.514,0-10-4.486-10-10s4.486-10,10-10s10,4.486,10,10S50.514,36,45,36z M45,22 c-2.206,0-4,1.794-4,4s1.794,4,4,4s4-1.794,4-4S47.206,22,45,22z"/><path fill="#4343bf" d="M24,34c-4.411,0-8-3.589-8-8s3.589-8,8-8s8,3.589,8,8S28.411,34,24,34z M24,24 c-1.103,0-2,0.897-2,2s0.897,2,2,2s2-0.897,2-2S25.103,24,24,24z"/><path fill="#4b4dff" d="M67.231,46.903c-4.208,0-8.034,1.619-10.938,4.259c-1.076-4.817-5.317-8.417-10.395-8.417 c-3.688,0-6.937,1.897-8.853,4.78c-1.41-3.764-4.991-6.444-9.198-6.444c-5.438,0-9.846,4.468-9.846,9.98v10.316l17.231-2v9.148 h15.59V81H82V63.535C82,54.349,76.294,46.903,67.231,46.903z"/><path fill="#4343bf" d="M85,84H47.82V71.525h-15.51L32.08,63H15V51.061c0-7.157,5.763-12.979,12.846-12.979 c3.782,0,7.322,1.716,9.724,4.522c2.356-1.832,5.271-2.859,8.328-2.859c4.955,0,9.345,2.629,11.746,6.735 c2.905-1.679,6.201-2.577,9.587-2.577c10.296,0,17.77,8.257,17.77,19.633V84z M53.82,78H79V63.535 c0-6.566-3.683-13.633-11.77-13.633c-3.284,0-6.451,1.235-8.92,3.479l-3.82,3.473l-1.125-5.038 c-0.799-3.575-3.869-6.071-7.468-6.071c-2.548,0-4.923,1.286-6.354,3.44l-3.249,4.89l-2.06-5.497 c-1.007-2.689-3.575-4.496-6.39-4.496c-3.774,0-6.846,3.131-6.846,6.979V57h16.92l-0.26,8.525H53.82V78z"/><polygon fill="#3abcf8" points="54,84 44,84 44,75 28,75 28,67 21,67 21,57 38,57 38,65 54,65"/><polygon fill="#edf7f5" points="75,74 65,74 65,70 71,70 71,64 75,64"/></svg>